<svg width="24" height="24" viewBox="0 0 24 24" fill="none" xmlns="http://www.w3.org/2000/svg">
<g clip-path="url(#clip0_1106_4265)">
<path d="M19.98 5.98688L19.4672 6.49969C19.2061 6.76076 18.852 6.90743 18.4828 6.90743C18.1136 6.90743 17.7595 6.76076 17.4984 6.49969C17.2374 6.23862 17.0907 5.88452 17.0907 5.51531C17.0907 5.1461 17.2374 4.79201 17.4984 4.53094L18.0112 4.01813L14.7431 0.75L10.6181 4.875L10.4306 5.44172L9.86391 5.62922L0.75 14.7431L4.02 18.0131L4.53281 17.5003C4.79388 17.2392 5.14798 17.0926 5.51719 17.0926C5.8864 17.0926 6.24049 17.2392 6.50156 17.5003C6.76263 17.7614 6.9093 18.1155 6.9093 18.4847C6.9093 18.8539 6.76263 19.208 6.50156 19.4691L5.98875 19.9819L9.25687 23.25L18.3694 14.1375L18.5569 13.5708L19.1236 13.3833L23.2486 9.25828L19.98 5.98688ZM10.2037 6.24141L11.2289 5.21625L12.7758 6.76312L11.7502 7.78828L10.2037 6.24141ZM12.2194 8.25703L13.245 7.23141L14.7694 8.75578L13.7438 9.78141L12.2194 8.25703ZM14.2144 10.252L15.24 9.22641L16.7644 10.7508L15.7406 11.7787L14.2144 10.252ZM17.7567 13.7939L16.2098 12.247L17.235 11.2214L18.7819 12.7683L17.7567 13.7939Z" fill="black"/>
</g>
<defs>
<clipPath id="clip0_1106_4265">
<rect width="24" height="24" fill="white"/>
</clipPath>
</defs>
</svg>
